<svg width="64" height="64" viewBox="0 0 64 64" fill="none" xmlns="http://www.w3.org/2000/svg">
<g clip-path="url(#clip0_143_40)">
<path d="M37.7685 43.376C41.637 41.303 44.691 38.4811 46.9289 34.9095C49.1665 31.3386 50.2855 27.4499 50.2855 23.2431C50.2855 19.0363 49.1665 15.1472 46.928 11.5762C44.6904 8.00514 41.6369 5.183 37.7678 3.10945C33.8988 1.03622 29.6906 0 25.1426 0C20.595 0 16.3868 1.03686 12.5175 3.10945C8.64857 5.18285 5.59496 8.00498 3.3572 11.5762C1.11919 15.1478 0 19.0363 0 23.2433C0 26.8444 0.846493 30.2354 2.53685 33.4131C4.22709 36.5901 6.54866 39.269 9.50081 41.4477C9.26289 42.1746 9.01884 42.8396 8.76878 43.4457C8.5186 44.0508 8.22126 44.633 7.87575 45.1933C7.5305 45.7538 7.26293 46.1923 7.07229 46.509C6.88178 46.8267 6.5723 47.2741 6.14349 47.8481C5.7148 48.4233 5.44085 48.8015 5.32201 48.9826C5.32201 48.9523 5.27435 49.0208 5.17903 49.1873C5.08359 49.3537 5.03005 49.429 5.01829 49.4148C5.00628 49.3984 4.95862 49.4741 4.87531 49.6406C4.792 49.8072 4.75022 49.8904 4.75022 49.8904L4.66078 50.1166C4.6255 50.2081 4.60124 50.2974 4.58948 50.3888C4.57747 50.479 4.57146 50.5781 4.57146 50.6836C4.57146 50.7892 4.58322 50.8872 4.60749 50.9784C4.65515 51.3713 4.792 51.6885 5.01817 51.9318C5.24421 52.1735 5.48801 52.2942 5.7502 52.2942H5.8574C7.04765 52.0824 8.07165 51.8404 8.92865 51.5677C12.5953 50.3577 15.9051 48.4199 18.8574 45.7569C21.0001 46.2413 23.0954 46.4833 25.1429 46.4833C29.6908 46.4853 33.8995 45.4494 37.7685 43.376Z" fill="#FF6600"/>
<path d="M61.4648 45.0552C63.1558 41.8928 64.0007 38.4968 64.0007 34.8648C64.0007 31.1419 63.1068 27.6594 61.3217 24.4215C59.5358 21.1839 57.1069 18.4899 54.0358 16.3411C54.5829 18.6107 54.8568 20.9107 54.8568 23.2415C54.8568 27.2966 54.0602 31.1401 52.4639 34.7722C50.8687 38.4032 48.5829 41.6109 45.6069 44.3957C42.8449 46.9378 39.7019 48.8893 36.1779 50.2516C32.6548 51.613 28.976 52.2945 25.1425 52.2945C24.4285 52.2945 23.3808 52.2345 22 52.1137C26.7855 56.1076 32.4047 58.1057 38.8568 58.1057C40.9047 58.1057 42.9997 57.863 45.1428 57.3789C48.0949 60.043 51.4049 61.979 55.0713 63.1903C55.9284 63.4634 56.9523 63.7049 58.1428 63.9166C58.4284 63.9469 58.6908 63.8409 58.9287 63.5987C59.1668 63.3567 59.3218 63.0247 59.3928 62.6015C59.3817 62.4197 59.3928 62.32 59.4287 62.3056C59.4639 62.2913 59.4579 62.1924 59.4107 62.0111C59.3637 61.8292 59.3397 61.7384 59.3397 61.7384L59.2506 61.512C59.2258 61.4522 59.1855 61.3684 59.1256 61.2628C59.0661 61.1579 59.0187 61.0811 58.9826 61.0359C58.9476 60.9908 58.8945 60.9146 58.8225 60.8095C58.7515 60.7046 58.7036 60.6359 58.6795 60.6055C58.5606 60.4238 58.2869 60.0457 57.8584 59.4704C57.4295 58.8959 57.1205 58.4496 56.93 58.1319C56.7395 57.8141 56.4716 57.3755 56.1264 56.8151C55.7814 56.2557 55.4835 55.6729 55.2334 55.0675C54.9835 54.4623 54.7394 53.7962 54.5014 53.0704C57.4538 50.8895 59.7747 48.2187 61.4648 45.0552Z" fill="#FF6600"/>
</g>
<defs>
<clipPath id="clip0_143_40">
<rect width="64" height="64" fill="white"/>
</clipPath>
</defs>
</svg>
