<svg width="64" height="64" viewBox="0 0 64 64" fill="none" xmlns="http://www.w3.org/2000/svg">
<path d="M32.001 30.1176C40.8375 30.1176 48.001 23.3756 48.001 15.0588C48.001 6.74206 40.8375 0 32.001 0C23.1644 0 16.001 6.74206 16.001 15.0588C16.001 23.3756 23.1644 30.1176 32.001 30.1176Z" fill="#FF6600"/>
<path d="M64 64V48.9411C64 46.6823 62.8 44.4235 60.8 42.9176C56.4 39.5294 50.8 37.2706 45.2 35.7647C41.2 34.6353 36.8 33.8823 32 33.8823C27.6 33.8823 23.2 34.6353 18.8 35.7647C13.2 37.2706 7.6 39.9059 3.2 42.9176C1.2 44.4235 0 46.6823 0 48.9411V64H64Z" fill="#FF6600"/>
</svg>
