<svg width="64" height="64" viewBox="0 0 64 64" fill="none" xmlns="http://www.w3.org/2000/svg">
<path d="M2.958e-06 32.0068C-0.00245974 26.2795 1.53287 20.6567 4.44571 15.7251C7.35855 10.7935 11.5421 6.73414 16.5596 3.97068C21.5771 1.20722 27.2446 -0.158974 32.9705 0.0147196C38.6963 0.188413 44.2706 1.89562 49.1113 4.95813L53.216 0.857209C53.6234 0.45005 54.1425 0.172965 54.7075 0.0610699C55.2725 -0.0508257 55.8581 0.00750556 56.3899 0.228671C56.9218 0.449837 57.376 0.823881 57.695 1.3034C58.014 1.78292 58.1834 2.34632 58.1818 2.92221V14.556C58.1818 15.3274 57.8753 16.0672 57.3298 16.6126C56.7842 17.1581 56.0443 17.4645 55.2727 17.4645H43.6364C43.0611 17.4644 42.4988 17.2937 42.0205 16.9741C41.5422 16.6545 41.1694 16.2003 40.9493 15.669C40.7292 15.1376 40.6716 14.5529 40.7838 13.9888C40.896 13.4247 41.1729 12.9065 41.5796 12.4998L44.8611 9.21902C40.8792 6.96792 36.3766 5.79987 31.8023 5.83137C27.228 5.86288 22.7419 7.09283 18.7914 9.39857C14.8409 11.7043 11.5641 15.0053 9.28779 18.9722C7.01145 22.9391 5.81515 27.4334 5.81818 32.0068C5.81818 32.7781 5.51169 33.5179 4.96613 34.0634C4.42057 34.6088 3.68063 34.9152 2.90909 34.9152C2.13756 34.9152 1.39762 34.6088 0.852056 34.0634C0.306495 33.5179 2.958e-06 32.7781 2.958e-06 32.0068ZM61.0909 29.0983C60.3194 29.0983 59.5794 29.4047 59.0339 29.9502C58.4883 30.4956 58.1818 31.2354 58.1818 32.0068C58.1741 38.9467 55.4132 45.6003 50.5048 50.5076C45.5965 55.4149 38.9415 58.1752 32 58.1829C27.4917 58.191 23.0595 57.022 19.1418 54.7916L22.4204 51.5138C22.8271 51.107 23.104 50.5889 23.2162 50.0248C23.3284 49.4607 23.2708 48.876 23.0507 48.3446C22.8306 47.8132 22.4578 47.359 21.9795 47.0394C21.5012 46.7198 20.9389 46.5492 20.3636 46.5491H8.72728C7.95574 46.5491 7.2158 46.8555 6.67024 47.4009C6.12468 47.9464 5.81818 48.6861 5.81818 49.4575V61.0913C5.81804 61.6665 5.98849 62.2289 6.30797 62.7072C6.62746 63.1856 7.08164 63.5585 7.61309 63.7788C7.96606 63.9259 8.34486 64.001 8.72728 63.9998C9.49875 63.9996 10.2386 63.6931 10.784 63.1476L14.8887 59.0554C20.0022 62.3055 25.9407 64.0215 32 63.9998C40.4839 63.9898 48.6174 60.6159 54.6164 54.6182C60.6154 48.6205 63.99 40.4888 64 32.0068C64 31.2354 63.6935 30.4956 63.148 29.9502C62.6024 29.4047 61.8625 29.0983 61.0909 29.0983Z" fill="#FF6600"/>
</svg>
