<svg width="64" height="64" viewBox="0 0 64 64" fill="none" xmlns="http://www.w3.org/2000/svg">
<path fill-rule="evenodd" clip-rule="evenodd" d="M35.2 30.1525V16C35.2 14.2336 33.7664 12.8 32 12.8C30.2336 12.8 28.8 14.2336 28.8 16V31.9643C28.7944 32.5289 28.9384 33.0869 29.216 33.578C29.5279 34.1079 29.9391 34.5117 30.4309 34.7891L44.2564 42.7713C45.7862 43.6545 47.7445 43.1297 48.6277 41.6C49.5109 40.0703 48.9862 38.1119 47.4564 37.2287L35.2 30.1525ZM32 0C49.6736 0 64 14.3264 64 32C64 49.6736 49.6736 64 32 64C14.3264 64 0 49.6736 0 32C0 14.3264 14.3264 0 32 0Z" fill="#FF6600"/>
</svg>
