<svg width="64" height="64" viewBox="0 0 64 64" fill="none" xmlns="http://www.w3.org/2000/svg">
<g clip-path="url(#clip0_143_41)">
<path d="M60.4617 26.3077L43.3839 43.3848C38.6669 48.1025 31.0245 48.1025 26.3071 43.3848L20.615 37.692L26.3071 32.0005L31.9997 37.692C33.572 39.2613 36.1232 39.2645 37.6925 37.692L54.769 20.6156C56.3375 19.0451 56.3375 16.4918 54.769 14.9209L49.0769 9.22876C47.5076 7.66054 44.9534 7.66054 43.3839 9.22876L37.2873 15.3264C34.461 13.663 31.2487 12.9497 28.0685 13.1639L37.6925 3.53661C42.4095 -1.17855 50.0556 -1.17855 54.769 3.53661L60.4618 9.22876C65.1788 13.9442 65.1788 21.5926 60.4617 26.3077ZM26.7084 48.6768L20.6151 54.7697C19.0428 56.3421 16.4916 56.3383 14.923 54.7697L9.23046 49.0775C7.65812 47.5084 7.65812 44.957 9.23046 43.3847L26.3073 26.3076C27.8762 24.7394 30.4314 24.7394 31.9998 26.3076L37.6926 32.0004L43.3841 26.3076L37.6926 20.6155C32.9749 15.9003 25.3325 15.9003 20.6153 20.6155L3.53806 37.692C-1.17935 42.4104 -1.17935 50.0565 3.53806 54.7697L9.23046 60.462C13.9441 65.1796 21.5901 65.1796 26.3073 60.462L35.9306 50.8382C32.7506 51.0502 29.5467 50.3359 26.7084 48.6768Z" fill="#FF6600"/>
</g>
<defs>
<clipPath id="clip0_143_41">
<rect width="64" height="64" fill="white"/>
</clipPath>
</defs>
</svg>
